<mxfile host="app.diagrams.net" modified="2020-11-30T06:46:38.353Z" agent="5.0 (Macintosh; Intel Mac OS X 10_15_7) AppleWebKit/605.1.15 (KHTML, like Gecko) Version/14.0 Safari/605.1.15" etag="cWBlx0oOL60B7RdySZon" version="13.10.4" type="github">
  <diagram id="RQpqHFpnzPIUH-CM5aDS" name="Page-1">
    <mxGraphModel dx="922" dy="544" grid="1" gridSize="10" guides="1" tooltips="1" connect="1" arrows="1" fold="1" page="1" pageScale="1" pageWidth="827" pageHeight="1169" math="0" shadow="0">
      <root>
        <mxCell id="0" />
        <mxCell id="1" parent="0" />
        <mxCell id="1NheDvkulnPa5VNXS3Xh-5" value="functional_permission&#xa;（功能权限表）" style="shape=table;startSize=30;container=1;collapsible=1;childLayout=tableLayout;fixedRows=1;rowLines=0;fontStyle=1;align=center;resizeLast=1;" vertex="1" parent="1">
          <mxGeometry x="90" y="50" width="210" height="180" as="geometry" />
        </mxCell>
        <mxCell id="1NheDvkulnPa5VNXS3Xh-6" value="" style="shape=partialRectangle;collapsible=0;dropTarget=0;pointerEvents=0;fillColor=none;top=0;left=0;bottom=1;right=0;points=[[0,0.5],[1,0.5]];portConstraint=eastwest;" vertex="1" parent="1NheDvkulnPa5VNXS3Xh-5">
          <mxGeometry y="30" width="210" height="20" as="geometry" />
        </mxCell>
        <mxCell id="1NheDvkulnPa5VNXS3Xh-7" value="PK" style="shape=partialRectangle;connectable=0;fillColor=none;top=0;left=0;bottom=0;right=0;fontStyle=1;overflow=hidden;" vertex="1" parent="1NheDvkulnPa5VNXS3Xh-6">
          <mxGeometry width="30" height="20" as="geometry" />
        </mxCell>
        <mxCell id="1NheDvkulnPa5VNXS3Xh-8" value="id   自增ID" style="shape=partialRectangle;connectable=0;fillColor=none;top=0;left=0;bottom=0;right=0;align=left;spacingLeft=6;fontStyle=5;overflow=hidden;" vertex="1" parent="1NheDvkulnPa5VNXS3Xh-6">
          <mxGeometry x="30" width="180" height="20" as="geometry" />
        </mxCell>
        <mxCell id="1NheDvkulnPa5VNXS3Xh-9" value="" style="shape=partialRectangle;collapsible=0;dropTarget=0;pointerEvents=0;fillColor=none;top=0;left=0;bottom=0;right=0;points=[[0,0.5],[1,0.5]];portConstraint=eastwest;" vertex="1" parent="1NheDvkulnPa5VNXS3Xh-5">
          <mxGeometry y="50" width="210" height="30" as="geometry" />
        </mxCell>
        <mxCell id="1NheDvkulnPa5VNXS3Xh-10" value="" style="shape=partialRectangle;connectable=0;fillColor=none;top=0;left=0;bottom=0;right=0;editable=1;overflow=hidden;" vertex="1" parent="1NheDvkulnPa5VNXS3Xh-9">
          <mxGeometry width="30" height="30" as="geometry" />
        </mxCell>
        <mxCell id="1NheDvkulnPa5VNXS3Xh-11" value="entity_code 实体ID" style="shape=partialRectangle;connectable=0;fillColor=none;top=0;left=0;bottom=0;right=0;align=left;spacingLeft=6;overflow=hidden;" vertex="1" parent="1NheDvkulnPa5VNXS3Xh-9">
          <mxGeometry x="30" width="180" height="30" as="geometry" />
        </mxCell>
        <mxCell id="1NheDvkulnPa5VNXS3Xh-12" value="" style="shape=partialRectangle;collapsible=0;dropTarget=0;pointerEvents=0;fillColor=none;top=0;left=0;bottom=0;right=0;points=[[0,0.5],[1,0.5]];portConstraint=eastwest;" vertex="1" parent="1NheDvkulnPa5VNXS3Xh-5">
          <mxGeometry y="80" width="210" height="30" as="geometry" />
        </mxCell>
        <mxCell id="1NheDvkulnPa5VNXS3Xh-13" value="" style="shape=partialRectangle;connectable=0;fillColor=none;top=0;left=0;bottom=0;right=0;editable=1;overflow=hidden;" vertex="1" parent="1NheDvkulnPa5VNXS3Xh-12">
          <mxGeometry width="30" height="30" as="geometry" />
        </mxCell>
        <mxCell id="1NheDvkulnPa5VNXS3Xh-14" value="functional 功能" style="shape=partialRectangle;connectable=0;fillColor=none;top=0;left=0;bottom=0;right=0;align=left;spacingLeft=6;overflow=hidden;" vertex="1" parent="1NheDvkulnPa5VNXS3Xh-12">
          <mxGeometry x="30" width="180" height="30" as="geometry" />
        </mxCell>
        <mxCell id="1NheDvkulnPa5VNXS3Xh-15" value="" style="shape=partialRectangle;collapsible=0;dropTarget=0;pointerEvents=0;fillColor=none;top=0;left=0;bottom=0;right=0;points=[[0,0.5],[1,0.5]];portConstraint=eastwest;" vertex="1" parent="1NheDvkulnPa5VNXS3Xh-5">
          <mxGeometry y="110" width="210" height="30" as="geometry" />
        </mxCell>
        <mxCell id="1NheDvkulnPa5VNXS3Xh-16" value="" style="shape=partialRectangle;connectable=0;fillColor=none;top=0;left=0;bottom=0;right=0;editable=1;overflow=hidden;" vertex="1" parent="1NheDvkulnPa5VNXS3Xh-15">
          <mxGeometry width="30" height="30" as="geometry" />
        </mxCell>
        <mxCell id="1NheDvkulnPa5VNXS3Xh-17" value="department_ids" style="shape=partialRectangle;connectable=0;fillColor=none;top=0;left=0;bottom=0;right=0;align=left;spacingLeft=6;overflow=hidden;" vertex="1" parent="1NheDvkulnPa5VNXS3Xh-15">
          <mxGeometry x="30" width="180" height="30" as="geometry" />
        </mxCell>
        <mxCell id="1NheDvkulnPa5VNXS3Xh-47" style="shape=partialRectangle;collapsible=0;dropTarget=0;pointerEvents=0;fillColor=none;top=0;left=0;bottom=0;right=0;points=[[0,0.5],[1,0.5]];portConstraint=eastwest;" vertex="1" parent="1NheDvkulnPa5VNXS3Xh-5">
          <mxGeometry y="140" width="210" height="30" as="geometry" />
        </mxCell>
        <mxCell id="1NheDvkulnPa5VNXS3Xh-48" style="shape=partialRectangle;connectable=0;fillColor=none;top=0;left=0;bottom=0;right=0;editable=1;overflow=hidden;" vertex="1" parent="1NheDvkulnPa5VNXS3Xh-47">
          <mxGeometry width="30" height="30" as="geometry" />
        </mxCell>
        <mxCell id="1NheDvkulnPa5VNXS3Xh-49" value="parent_id" style="shape=partialRectangle;connectable=0;fillColor=none;top=0;left=0;bottom=0;right=0;align=left;spacingLeft=6;overflow=hidden;" vertex="1" parent="1NheDvkulnPa5VNXS3Xh-47">
          <mxGeometry x="30" width="180" height="30" as="geometry" />
        </mxCell>
        <mxCell id="1NheDvkulnPa5VNXS3Xh-63" value="role_functional_permission&#xa;（角色功能权限表）" style="shape=table;startSize=30;container=1;collapsible=1;childLayout=tableLayout;fixedRows=1;rowLines=0;fontStyle=1;align=center;resizeLast=1;" vertex="1" parent="1">
          <mxGeometry x="411" y="50" width="219" height="160" as="geometry" />
        </mxCell>
        <mxCell id="1NheDvkulnPa5VNXS3Xh-64" value="" style="shape=partialRectangle;collapsible=0;dropTarget=0;pointerEvents=0;fillColor=none;top=0;left=0;bottom=1;right=0;points=[[0,0.5],[1,0.5]];portConstraint=eastwest;" vertex="1" parent="1NheDvkulnPa5VNXS3Xh-63">
          <mxGeometry y="30" width="219" height="30" as="geometry" />
        </mxCell>
        <mxCell id="1NheDvkulnPa5VNXS3Xh-65" value="PK" style="shape=partialRectangle;connectable=0;fillColor=none;top=0;left=0;bottom=0;right=0;fontStyle=1;overflow=hidden;" vertex="1" parent="1NheDvkulnPa5VNXS3Xh-64">
          <mxGeometry width="30" height="30" as="geometry" />
        </mxCell>
        <mxCell id="1NheDvkulnPa5VNXS3Xh-66" value="id  自增ID" style="shape=partialRectangle;connectable=0;fillColor=none;top=0;left=0;bottom=0;right=0;align=left;spacingLeft=6;fontStyle=5;overflow=hidden;" vertex="1" parent="1NheDvkulnPa5VNXS3Xh-64">
          <mxGeometry x="30" width="189" height="30" as="geometry" />
        </mxCell>
        <mxCell id="1NheDvkulnPa5VNXS3Xh-67" value="" style="shape=partialRectangle;collapsible=0;dropTarget=0;pointerEvents=0;fillColor=none;top=0;left=0;bottom=0;right=0;points=[[0,0.5],[1,0.5]];portConstraint=eastwest;" vertex="1" parent="1NheDvkulnPa5VNXS3Xh-63">
          <mxGeometry y="60" width="219" height="30" as="geometry" />
        </mxCell>
        <mxCell id="1NheDvkulnPa5VNXS3Xh-68" value="" style="shape=partialRectangle;connectable=0;fillColor=none;top=0;left=0;bottom=0;right=0;editable=1;overflow=hidden;" vertex="1" parent="1NheDvkulnPa5VNXS3Xh-67">
          <mxGeometry width="30" height="30" as="geometry" />
        </mxCell>
        <mxCell id="1NheDvkulnPa5VNXS3Xh-69" value="role_id" style="shape=partialRectangle;connectable=0;fillColor=none;top=0;left=0;bottom=0;right=0;align=left;spacingLeft=6;overflow=hidden;" vertex="1" parent="1NheDvkulnPa5VNXS3Xh-67">
          <mxGeometry x="30" width="189" height="30" as="geometry" />
        </mxCell>
        <mxCell id="1NheDvkulnPa5VNXS3Xh-70" value="" style="shape=partialRectangle;collapsible=0;dropTarget=0;pointerEvents=0;fillColor=none;top=0;left=0;bottom=0;right=0;points=[[0,0.5],[1,0.5]];portConstraint=eastwest;" vertex="1" parent="1NheDvkulnPa5VNXS3Xh-63">
          <mxGeometry y="90" width="219" height="30" as="geometry" />
        </mxCell>
        <mxCell id="1NheDvkulnPa5VNXS3Xh-71" value="" style="shape=partialRectangle;connectable=0;fillColor=none;top=0;left=0;bottom=0;right=0;editable=1;overflow=hidden;" vertex="1" parent="1NheDvkulnPa5VNXS3Xh-70">
          <mxGeometry width="30" height="30" as="geometry" />
        </mxCell>
        <mxCell id="1NheDvkulnPa5VNXS3Xh-72" value="functional_id" style="shape=partialRectangle;connectable=0;fillColor=none;top=0;left=0;bottom=0;right=0;align=left;spacingLeft=6;overflow=hidden;" vertex="1" parent="1NheDvkulnPa5VNXS3Xh-70">
          <mxGeometry x="30" width="189" height="30" as="geometry" />
        </mxCell>
        <mxCell id="1NheDvkulnPa5VNXS3Xh-73" value="" style="shape=partialRectangle;collapsible=0;dropTarget=0;pointerEvents=0;fillColor=none;top=0;left=0;bottom=0;right=0;points=[[0,0.5],[1,0.5]];portConstraint=eastwest;" vertex="1" parent="1NheDvkulnPa5VNXS3Xh-63">
          <mxGeometry y="120" width="219" height="30" as="geometry" />
        </mxCell>
        <mxCell id="1NheDvkulnPa5VNXS3Xh-74" value="" style="shape=partialRectangle;connectable=0;fillColor=none;top=0;left=0;bottom=0;right=0;editable=1;overflow=hidden;" vertex="1" parent="1NheDvkulnPa5VNXS3Xh-73">
          <mxGeometry width="30" height="30" as="geometry" />
        </mxCell>
        <mxCell id="1NheDvkulnPa5VNXS3Xh-75" value="type 类型 1-菜单 2-功能 3-数据" style="shape=partialRectangle;connectable=0;fillColor=none;top=0;left=0;bottom=0;right=0;align=left;spacingLeft=6;overflow=hidden;" vertex="1" parent="1NheDvkulnPa5VNXS3Xh-73">
          <mxGeometry x="30" width="189" height="30" as="geometry" />
        </mxCell>
      </root>
    </mxGraphModel>
  </diagram>
</mxfile>
